<svg class="icon" viewBox="0 0 1024 1024" xmlns="http://www.w3.org/2000/svg" width="200" height="200"><path d="M326.388.753h211.569v54.349H326.388zm213.07 55.856h52.28v52.28h-52.28z"/><path d="M485.682 56.61h52.28v52.279h-52.28zm-53.787 0h52.28v52.279h-52.28zm-53.789 0h52.28v52.279h-52.28zm-53.789 0h52.28v52.279h-52.28z" fill="#FD0000"/><path d="M270.529 56.61h52.28v52.279h-52.28z"/><path d="M270.529 110.395h52.28v52.28h-52.28zm0 53.784h52.28v52.28h-52.28z" fill="#FD0000"/><path d="M270.529 217.964h52.28v52.28h-52.28z"/><path d="M270.529 271.75h52.28v52.28h-52.28z" fill="#FD0000"/><path d="M270.529 325.539h52.28v52.28h-52.28zm0 53.785h52.28v52.28h-52.28zm0 53.784h52.28v52.28h-52.28z" fill="#FFF"/><path d="M270.529 486.894h52.28v52.28h-52.28zm0 53.786h52.28v52.28h-52.28zm0 53.785h52.28v52.28h-52.28z" fill="#FBD5B5"/><path d="M270.529 648.252h52.28v52.28h-52.28zm-53.775-537.857h52.28v52.28h-52.28zm0 53.784h52.28v52.28h-52.28zm0 53.785h52.28v52.28h-52.28z"/><path d="M216.754 271.75h52.28v52.28h-52.28z" fill="#FD0000"/><path d="M216.754 325.539h52.28v52.28h-52.28z"/><path d="M216.754 379.324h52.28v52.28h-52.28z" fill="#FFF"/><path d="M216.754 433.108h52.28v52.28h-52.28z"/><path d="M216.754 486.894h52.28v52.28h-52.28zm0 53.786h52.28v52.28h-52.28z" fill="#FBD5B5"/><path d="M216.754 594.465h52.28v52.28h-52.28zm0 53.787h52.28v52.28h-52.28zm-53.789-161.358h52.28v52.28h-52.28zm0 53.786h52.28v52.28h-52.28zm0 53.785h52.28v52.28h-52.28zm0-376.5h52.28v52.28h-52.28z"/><path d="M162.965 271.75h52.28v52.28h-52.28z" fill="#FD0000"/><path d="M162.965 325.539h52.28v52.28h-52.28zm-53.789-53.789h52.28v52.28h-52.28z"/><path d="M324.317 110.395h52.28v52.28h-52.28zm0 53.784h52.28v52.28h-52.28z" fill="#FD0000"/><path d="M324.317 217.964h52.28v52.28h-52.28z"/><path d="M324.317 271.75h52.28v52.28h-52.28z" fill="#FD0000"/><path d="M324.317 325.539h52.28v52.28h-52.28z" fill="#FFF"/><path d="M324.317 379.324h52.28v52.28h-52.28zm0 53.784h52.28v52.28h-52.28z"/><path d="M324.317 486.894h52.28v52.28h-52.28zm0 53.786h52.28v52.28h-52.28zm0 53.785h52.28v52.28h-52.28z" fill="#FBD5B5"/><path d="M324.317 648.252h52.28v52.28h-52.28z"/><path d="M378.106 110.395h52.28v52.28h-52.28zm0 53.784h52.28v52.28h-52.28z" fill="#FD0000"/><path d="M378.106 217.964h52.28v52.28h-52.28z"/><path d="M378.106 271.75h52.28v52.28h-52.28z" fill="#FD0000"/><path d="M378.106 325.539h52.28v52.28h-52.28zm0 53.785h52.28v52.28h-52.28zm0 53.784h52.28v52.28h-52.28zm0 53.786h52.28v52.28h-52.28zm0 53.786h52.28v52.28h-52.28zm0 53.785h52.28v52.28h-52.28z" fill="#FBD5B5"/><path d="M378.106 648.252h52.28v52.28h-52.28z"/><path d="M431.895 110.395h52.28v52.28h-52.28zm0 53.784h52.28v52.28h-52.28z" fill="#FD0000"/><path d="M431.895 217.964h52.28v52.28h-52.28z"/><path d="M431.895 271.75h52.28v52.28h-52.28z" fill="#FD0000"/><path d="M431.895 325.539h52.28v52.28h-52.28z" fill="#FFF"/><path d="M431.895 379.324h52.28v52.28h-52.28zm0 53.784h52.28v52.28h-52.28z"/><path d="M431.895 486.894h52.28v52.28h-52.28zm0 53.786h52.28v52.28h-52.28z" fill="#FBD5B5"/><path d="M431.895 594.465h52.28v52.28h-52.28zm0 53.787h52.28v52.28h-52.28z"/><path d="M485.682 110.395h52.28v52.28h-52.28zm0 53.784h52.28v52.28h-52.28zm0 53.785h52.28v52.28h-52.28z" fill="#FD0000"/><path d="M485.682 271.75h52.28v52.28h-52.28z"/><path d="M485.682 325.539h52.28v52.28h-52.28zm0 53.785h52.28v52.28h-52.28zm0 53.784h52.28v52.28h-52.28z" fill="#FFF"/><path d="M485.682 486.894h52.28v52.28h-52.28z" fill="#FBD5B5"/><path d="M485.682 540.68h52.28v52.28h-52.28zm0 53.785h52.28v52.28h-52.28zm0 53.787h52.28v52.28h-52.28z"/><path d="M539.458 110.395h52.28v52.28h-52.28zm0 53.784h52.28v52.28h-52.28zm0 53.785h52.28v52.28h-52.28zm0 53.786h52.28v52.28h-52.28z" fill="#FD0000"/><path d="M539.458 325.539h52.28v52.28h-52.28z"/><path d="M539.458 379.324h52.28v52.28h-52.28zm0 53.784h52.28v52.28h-52.28zm0 53.786h52.28v52.28h-52.28zm0 53.786h52.28v52.28h-52.28z" fill="#FBD5B5"/><path d="M539.458 594.465h52.28v52.28h-52.28z"/><path d="M539.458 648.252h52.28v52.28h-52.28z" fill="#FBD5B5"/><path d="M593.247 110.395h52.28v52.28h-52.28zm0 53.784h52.28v52.28h-52.28zm0 53.785h52.28v52.28h-52.28zm0 53.786h52.28v52.28h-52.28z" fill="#FD0000"/><path d="M593.247 325.539h52.28v52.28h-52.28z"/><path d="M593.247 379.324h52.28v52.28h-52.28zm0 53.784h52.28v52.28h-52.28z" fill="#FBD5B5"/><path d="M593.247 486.894h52.28v52.28h-52.28z"/><path d="M593.247 540.68h52.28v52.28h-52.28zm0 53.785h52.28v52.28h-52.28zm0 53.787h52.28v52.28h-52.28z" fill="#FBD5B5"/><path d="M593.247 56.61h52.28v52.279h-52.28zm53.788 53.785h52.28v52.28h-52.28z"/><path d="M647.035 164.179h52.28v52.28h-52.28zm0 53.785h52.28v52.28h-52.28zm0 53.786h52.28v52.28h-52.28zm0 53.789h52.28v52.28h-52.28z" fill="#FD0000"/><path d="M647.035 379.324h52.28v52.28h-52.28zm0 53.784h52.28v52.28h-52.28zm0 53.786h52.28v52.28h-52.28zm0 53.786h52.28v52.28h-52.28z"/><path d="M647.035 594.465h52.28v52.28h-52.28zm0 53.787h52.28v52.28h-52.28z" fill="#FBD5B5"/><path d="M700.824 217.964h52.28v52.28h-52.28zm0 53.786h52.28v52.28h-52.28zm0 53.789h52.28v52.28h-52.28z" fill="#FD0000"/><path d="M700.824 379.324h52.28v52.28h-52.28zm0 53.784h52.28v52.28h-52.28z"/><path d="M700.824 486.894h52.28v52.28h-52.28zm0 53.786h52.28v52.28h-52.28zm0 53.785h52.28v52.28h-52.28z" fill="#FBD5B5"/><path d="M700.824 648.252h52.28v52.28h-52.28zm0-484.073h52.28v52.28h-52.28zm53.787 53.785h52.28v52.28h-52.28z"/><path d="M754.611 271.75h52.28v52.28h-52.28zm0 53.789h52.28v52.28h-52.28zm0 53.785h52.28v52.28h-52.28z" fill="#FD0000"/><path d="M754.611 433.108h52.28v52.28h-52.28z"/><path d="M754.611 486.894h52.28v52.28h-52.28zm0 53.786h52.28v52.28h-52.28z" fill="#FBD5B5"/><path d="M808.388 217.964h52.28v52.28h-52.28z"/><path d="M808.388 271.75h52.28v52.28h-52.28zm0 53.789h52.28v52.28h-52.28zm0 53.785h52.28v52.28h-52.28z" fill="#FD0000"/><path d="M862.176 271.75h52.28v52.28h-52.28zm0 53.789h52.28v52.28h-52.28zm0 53.785h52.28v52.28h-52.28zm-53.788 53.784h52.28v52.28h-52.28zm0 53.786h52.28v52.28h-52.28zm0 53.786h52.28v52.28h-52.28zm-53.777 53.785h52.28v52.28h-52.28zm0 53.787h52.28v52.28h-52.28zm-53.787 53.786h52.28v52.28h-52.28z"/><path d="M700.824 755.823h52.28v52.28h-52.28z" fill="#FD0000"/><path d="M754.611 755.823h52.28v52.28h-52.28zm53.777 53.786h52.28v52.28h-52.28zm0 53.786h52.28v52.28h-52.28z"/><path d="M808.388 917.182h52.28v52.28h-52.28z" fill="#FD0000"/><path d="M862.176 917.182h52.28v52.28h-52.28zm0 53.785h52.28v52.28h-52.28z"/><path d="M808.388 970.967h52.28v52.28h-52.28zm-53.777 0h52.28v52.28h-52.28zm0-53.785h52.28v52.28h-52.28zm0-53.787h52.28v52.28h-52.28zm0-53.786h52.28v52.28h-52.28zm-53.787 161.358h52.28v52.28h-52.28zm0-53.785h52.28v52.28h-52.28zm0-53.787h52.28v52.28h-52.28zm0-53.786h52.28v52.28h-52.28zm-53.789 161.358h52.28v52.28h-52.28zm0-53.785h52.28v52.28h-52.28zm0-53.787h52.28v52.28h-52.28zm0-53.786h52.28v52.28h-52.28zm0-53.786h52.28v52.28h-52.28z" fill="#FD0000"/><path d="M647.035 702.038h52.28v52.28h-52.28z"/><path d="M593.247 970.967h52.28v52.28h-52.28z" fill="#FFF"/><path d="M593.247 917.182h52.28v52.28h-52.28zm0-53.787h52.28v52.28h-52.28zm0-53.786h52.28v52.28h-52.28z" fill="#0072C1"/><path d="M593.247 755.823h52.28v52.28h-52.28zm0-53.785h52.28v52.28h-52.28z"/><path d="M539.458 970.967h52.28v52.28h-52.28z" fill="#FFF"/><path d="M539.458 917.182h52.28v52.28h-52.28z" fill="#0072C1"/><path d="M539.458 863.395h52.28v52.28h-52.28zm0-53.786h52.28v52.28h-52.28z" fill="#FD0000"/><path d="M539.458 755.823h52.28v52.28h-52.28z"/><path d="M539.458 702.038h52.28v52.28h-52.28z" fill="#FBD5B5"/><path d="M485.682 970.967h52.28v52.28h-52.28zm0-53.785h52.28v52.28h-52.28z" fill="#0072C1"/><path d="M485.682 863.395h52.28v52.28h-52.28zm0-53.786h52.28v52.28h-52.28z" fill="#FD0000"/><path d="M485.682 755.823h52.28v52.28h-52.28z"/><path d="M485.682 702.038h52.28v52.28h-52.28z" fill="#FBD5B5"/><path d="M431.895 970.967h52.28v52.28h-52.28zm0-53.785h52.28v52.28h-52.28z" fill="#0072C1"/><path d="M431.895 863.395h52.28v52.28h-52.28zm0-53.786h52.28v52.28h-52.28z" fill="#FD0000"/><path d="M431.895 755.823h52.28v52.28h-52.28z"/><path d="M431.895 702.038h52.28v52.28h-52.28z" fill="#FBD5B5"/><path d="M378.106 970.967h52.28v52.28h-52.28zm0-53.785h52.28v52.28h-52.28zm0-53.787h52.28v52.28h-52.28zm0-53.786h52.28v52.28h-52.28z" fill="#0072C1"/><path d="M378.106 755.823h52.28v52.28h-52.28z"/><path d="M378.106 702.038h52.28v52.28h-52.28z" fill="#FBD5B5"/><path d="M324.317 970.967h52.28v52.28h-52.28z" fill="#FFF"/><path d="M324.317 917.182h52.28v52.28h-52.28z"/><path d="M324.317 863.395h52.28v52.28h-52.28zm0-53.786h52.28v52.28h-52.28z" fill="#FD0000"/><path d="M324.317 755.823h52.28v52.28h-52.28z"/><path d="M324.317 702.038h52.28v52.28h-52.28z" fill="#FBD5B5"/><path d="M270.529 702.038h52.28v52.28h-52.28z"/><path d="M270.529 970.967h52.28v52.28h-52.28zm0-53.785h52.28v52.28h-52.28z" fill="#FD0000"/><path d="M270.529 863.395h52.28v52.28h-52.28zm0-53.786h52.28v52.28h-52.28zm-53.775 161.358h52.28v52.28h-52.28zm0-53.785h52.28v52.28h-52.28z"/></svg>