<svg class="icon" viewBox="0 0 1408 1024" xmlns="http://www.w3.org/2000/svg" width="275" height="200"><path d="M576 0h64v64h-64z"/><path d="M576 64h64v64h-64z" fill="#E0B6FF"/><path d="M1024 192h64v64h-64zM128 768h64v64h-64zm449.882 192h64v64h-64z"/><path d="M576 896h64v64h-64z" fill="#7000C3"/><path d="M576 832h64v64h-64z" fill="#B652FF"/><path d="M448 64h64v64h-64zm-64 64h64v64h-64z"/><path d="M448 128h64v64h-64zm64 0h64v64h-64z" fill="#E0B6FF"/><path d="M576 128h64v64h-64zm64 0h64v64h-64z" fill="#CA82FF"/><path d="M704 128h64v64h-64zm64 0h64v64h-64z" fill="#9DCDF4"/><path d="M832 128h64v64h-64zm64 0h64v64h-64z" fill="#CA82FF"/><path d="M320 192h64v64h-64z"/><path d="M384 192h64v64h-64z" fill="#E0B6FF"/><path d="M448 192h64v64h-64zm64 0h64v64h-64z" fill="#CA82FF"/><path d="M576 192h64v64h-64z" fill="#ED91DC"/><path d="M640 192h64v64h-64zm64 0h64v64h-64z" fill="#9DCDF4"/><path d="M768 192h64v64h-64zm64 0h64v64h-64zm64 0h64v64h-64z" fill="#B652FF"/><path d="M960 192h64v64h-64z" fill="#EA6BD2"/><path d="M256 256h64v64h-64z"/><path d="M320 256h64v64h-64z" fill="#E0B6FF"/><path d="M384 256h64v64h-64z" fill="#CA82FF"/><path d="M448 256h64v64h-64zm64 0h64v64h-64z" fill="#ED91DC"/><path d="M576 256h64v64h-64zm64 0h64v64h-64zm64 0h64v64h-64z" fill="#6BB0EA"/><path d="M768 256h64v64h-64zm64 0h64v64h-64z" fill="#B652FF"/><path d="M896 256h64v64h-64z" fill="#EA6BD2"/><path d="M960 256h64v64h-64zm64 0h64v64h-64z" fill="#B652FF"/><path d="M1088 256h64v64h-64z"/><path d="M1152 256h64v64h-64z" fill="#FFDE00"/><path d="M1216 256h64v64h-64z" fill="#EDA900"/><path d="M1088 640h64v64h-64zm64-128h64v64h-64zm192-192h64v64h-64z"/><path d="M1280 320h64v64h-64z" fill="#EDA900"/><path d="M1280 256h64v64h-64zM256 320h64v64h-64z"/><path d="M320 320h64v64h-64z" fill="#CA82FF"/><path d="M384 320h64v64h-64z" fill="#ED91DC"/><path d="M448 320h64v64h-64zm64 0h64v64h-64z" fill="#EA6BD2"/><path d="M576 320h64v64h-64z" fill="#6BB0EA"/><path d="M640 320h64v64h-64zm64 0h64v64h-64zm64 0h64v64h-64z" fill="#B652FF"/><path d="M832 320h64v64h-64z" fill="#ED91DC"/><path d="M896 320h64v64h-64z" fill="#EA6BD2"/><path d="M960 320h64v64h-64zm64 0h64v64h-64z" fill="#B652FF"/><path d="M1088 320h64v64h-64z" fill="#6BB0EA"/><path d="M1152 320h64v64h-64z"/><path d="M1216 320h64v64h-64z" fill="#FFDE00"/><path d="M1088 704h64v64h-64zm64-128h64v64h-64zm192-192h64v64h-64z"/><path d="M1280 384h64v64h-64z" fill="#EDA900"/><path d="M192 384h64v64h-64z"/><path d="M256 384h64v64h-64z" fill="#CA82FF"/><path d="M320 384h64v64h-64zm64 0h64v64h-64z" fill="#ED91DC"/><path d="M448 384h64v64h-64z" fill="#EA6BD2"/><path d="M512 384h64v64h-64z" fill="#6BB0EA"/><path d="M576 384h64v64h-64zm64 0h64v64h-64zm64 0h64v64h-64z" fill="#B652FF"/><path d="M768 384h64v64h-64z" fill="#ED91DC"/><path d="M832 384h64v64h-64z" fill="#EA6BD2"/><path d="M896 384h64v64h-64z" fill="#B652FF"/><path d="M960 384h64v64h-64z" fill="#6BB0EA"/><path d="M1024 384h64v64h-64zm64 0h64v64h-64z"/><path d="M1152 384h64v64h-64zm64 0h64v64h-64z" fill="#FFDE00"/><path d="M128 448h64v64h-64zm64 0h64v64h-64z"/><path d="M256 448h64v64h-64z" fill="#CA82FF"/><path d="M320 448h64v64h-64z" fill="#EA6BD2"/><path d="M384 448h64v64h-64z" fill="#9DCDF4"/><path d="M448 448h64v64h-64zm64 0h64v64h-64zm64 0h64v64h-64zm64 0h64v64h-64z" fill="#B652FF"/><path d="M704 448h64v64h-64zm64 0h64v64h-64z" fill="#EA6BD2"/><path d="M832 448h64v64h-64zm64 0h64v64h-64zm64 0h64v64h-64z"/><path d="M1024 448h64v64h-64zm64 0h64v64h-64z" fill="#FFDE00"/><path d="M1152 448h64v64h-64z" fill="#EDA900"/><path d="M64 512h64v64H64z"/><path d="M128 512h64v64h-64z" fill="#FFDE00"/><path d="M192 512h64v64h-64z"/><path d="M256 512h64v64h-64z" fill="#ED91DC"/><path d="M320 512h64v64h-64z" fill="#B652FF"/><path d="M384 512h64v64h-64z" fill="#9DCDF4"/><path d="M448 512h64v64h-64z" fill="#B652FF"/><path d="M512 512h64v64h-64zm64 0h64v64h-64z" fill="#EA6BD2"/><path d="M640 512h64v64h-64zm64 0h64v64h-64zm64 0h64v64h-64z"/><path d="M832 512h64v64h-64z" fill="#FFDE00"/><path d="M896 512h64v64h-64zm64 0h64v64h-64zm64 0h64v64h-64z" fill="#EDA900"/><path d="M1088 512h64v64h-64zM0 576h64v64H0z"/><path d="M64 576h64v64H64zm64 0h64v64h-64z" fill="#FFDE00"/><path d="M192 576h64v64h-64z"/><path d="M256 576h64v64h-64z" fill="#B652FF"/><path d="M320 576h64v64h-64z" fill="#6BB0EA"/><path d="M384 576h64v64h-64z" fill="#B652FF"/><path d="M448 576h64v64h-64zm64 0h64v64h-64zm64 0h64v64h-64z"/><path d="M640 576h64v64h-64zm64 0h64v64h-64z" fill="#FFDE00"/><path d="M768 576h64v64h-64zm64 0h64v64h-64z" fill="#EDA900"/><path d="M896 576h64v64h-64zm64 0h64v64h-64zm64 0h64v64h-64z"/><path d="M1088 576h64v64h-64z" fill="#7000C3"/><path d="M0 640h64v64H0z"/><path d="M64 640h64v64H64zm64 0h64v64h-64zm64 0h64v64h-64z" fill="#FFDE00"/><path d="M256 640h64v64h-64zm64 0h64v64h-64zm64 0h64v64h-64z"/><path d="M448 640h64v64h-64zm64 0h64v64h-64z" fill="#EDA900"/><path d="M576 640h64v64h-64z" fill="#FFDE00"/><path d="M640 640h64v64h-64z" fill="#488ECA"/><path d="M704 640h64v64h-64zm64 0h64v64h-64zm64 0h64v64h-64z"/><path d="M896 640h64v64h-64z" fill="#C65BB2"/><path d="M960 640h64v64h-64z" fill="#488ECA"/><path d="M1024 640h64v64h-64z" fill="#7000C3"/><path d="M64 704h64v64H64z"/><path d="M128 704h64v64h-64z" fill="#FFDE00"/><path d="M192 704h64v64h-64zm64 0h64v64h-64zm64 0h64v64h-64zm64 0h64v64h-64z" fill="#EDA900"/><path d="M384 768h64v64h-64z"/><path d="M448 704h64v64h-64z" fill="#EDA900"/><path d="M448 768h64v64h-64zm64-64h64v64h-64z"/><path d="M512 768h64v64h-64z" fill="#C65BB2"/><path d="M576 704h64v64h-64z"/><path d="M576 768h64v64h-64z" fill="#C65BB2"/><path d="M640 704h64v64h-64z"/><path d="M640 768h64v64h-64z" fill="#488ECA"/><path d="M704 704h64v64h-64z" fill="#B652FF"/><path d="M704 768h64v64h-64zm64-64h64v64h-64zm0 64h64v64h-64z" fill="#488ECA"/><path d="M832 704h64v64h-64z" fill="#C65BB2"/><path d="M832 768h64v64h-64z" fill="#7000C3"/><path d="M896 704h64v64h-64z" fill="#B652FF"/><path d="M960 704h64v64h-64zm64 0h64v64h-64zm-128 64h64v64h-64zm64 0h64v64h-64z" fill="#7000C3"/><path d="M640 0h64v64h-64z"/><path d="M640 64h64v64h-64z" fill="#E0B6FF"/><path d="M1088 192h64v64h-64zM192 768h64v64h-64zm449.882 192h64v64h-64z"/><path d="M640 896h64v64h-64z" fill="#7000C3"/><path d="M640 832h64v64h-64z" fill="#C65BB2"/><path d="M512 64h64v64h-64zM704 0h64v64h-64z"/><path d="M704 64h64v64h-64z" fill="#CA82FF"/><path d="M832 64h64v64h-64zm320 128h64v64h-64zm64 256h64v64h-64zM256 768h64v64h-64zm449.882 192h64v64h-64z"/><path d="M704 896h64v64h-64z" fill="#7000C3"/><path d="M704 832h64v64h-64z" fill="#488ECA"/><path d="M832 896h64v64h-64z"/><path d="M832 832h64v64h-64z" fill="#7000C3"/><path d="M448 896h64v64h-64z"/><path d="M448 832h64v64h-64z" fill="#7000C3"/><path d="M768 0h64v64h-64z"/><path d="M768 64h64v64h-64z" fill="#CA82FF"/><path d="M896 64h64v64h-64zm64 64h64v64h-64zm256 64h64v64h-64zm64 256h64v64h-64zM320 768h64v64h-64zm449.882 192h64v64h-64z"/><path d="M768 896h64v64h-64zm0-64h64v64h-64z" fill="#7000C3"/><path d="M896 896h64v64h-64z"/><path d="M896 832h64v64h-64z" fill="#7000C3"/><path d="M960 832h64v64h-64zm64-64h64v64h-64zM512 896h64v64h-64z"/><path d="M512 832h64v64h-64z" fill="#B652FF"/><path d="M384 832h64v64h-64z"/></svg>